inDegrees=no
num_controls=7
num_derivatives=13
num_iterations=165
num_multipliers=7
num_parameters=0
num_slacks=7
num_states=26
objective=5.658390
objective_accelerations=0.847605
objective_balance=0.056735
objective_effort=0.469284
objective_height=4.201566
objective_ligament=0.083199
solver_duration=1788.603200
status=Solve_Succeeded
success=true
DataType=double
version=3
OpenSimVersion=4.4-2022-07-23-0e9fedc
endheader
time	/jointset/ground_pelvis/pelvis_tilt/value	/jointset/ground_pelvis/pelvis_tx/value	/jointset/ground_pelvis/pelvis_ty/value	/jointset/hip_l/hip_flexion_l/value	/jointset/hip_l/hip_adduction_l/value	/jointset/hip_l/hip_rotation_l/value	/jointset/back/lumbar_extension/value	/jointset/patellofemoral_l/patellar_flexion_l/value	/jointset/knee_l/knee_flexion_l/value	/jointset/knee_l/knee_adduction_l/value	/jointset/knee_l/knee_rotation_l/value	/jointset/ankle_l/ankle_angle_l/value	/jointset/subtalar_l/subtalar_angle_l/value	/jointset/ground_pelvis/pelvis_tilt/speed	/jointset/ground_pelvis/pelvis_tx/speed	/jointset/ground_pelvis/pelvis_ty/speed	/jointset/hip_l/hip_flexion_l/speed	/jointset/hip_l/hip_adduction_l/speed	/jointset/hip_l/hip_rotation_l/speed	/jointset/back/lumbar_extension/speed	/jointset/patellofemoral_l/patellar_flexion_l/speed	/jointset/knee_l/knee_flexion_l/speed	/jointset/knee_l/knee_adduction_l/speed	/jointset/knee_l/knee_rotation_l/speed	/jointset/ankle_l/ankle_angle_l/speed	/jointset/subtalar_l/subtalar_angle_l/speed	/forceset/tau_hip_flexion_l	/forceset/tau_hip_adduction_l	/forceset/tau_hip_rotation_l	/forceset/tau_knee_flexion_l	/forceset/tau_ankle_angle_l	/forceset/tau_subtalar_angle_l	/forceset/tau_lumbar_extension	lambda_cid13_p0	lambda_cid13_p1	lambda_cid13_p2	lambda_cid13_p3	lambda_cid13_p4	lambda_cid13_p5	lambda_cid14_p0	/jointset/ground_pelvis/pelvis_tilt/accel	/jointset/ground_pelvis/pelvis_tx/accel	/jointset/ground_pelvis/pelvis_ty/accel	/jointset/hip_l/hip_flexion_l/accel	/jointset/hip_l/hip_adduction_l/accel	/jointset/hip_l/hip_rotation_l/accel	/jointset/back/lumbar_extension/accel	/jointset/patellofemoral_l/patellar_flexion_l/accel	/jointset/knee_l/knee_flexion_l/accel	/jointset/knee_l/knee_adduction_l/accel	/jointset/knee_l/knee_rotation_l/accel	/jointset/ankle_l/ankle_angle_l/accel	/jointset/subtalar_l/subtalar_angle_l/accel	gamma_cid13_p0	gamma_cid13_p1	gamma_cid13_p2	gamma_cid13_p3	gamma_cid13_p4	gamma_cid13_p5	gamma_cid14_p0
1.5	-0.3475871856153906	-0.04727262591795162	0.7065033097518811	1.381275586536611	-0.2561419357372952	-0.01539066967624132	-0.3712112545229351	1.0682468150782	1.068246815078219	-0.01315668354752062	0.1743030918352195	0.2403681928329185	0.05571365967759559	0.3683150176359576	0.1153061638458816	0.7550472330122989	-2.553789497246793	-0.08215229661776118	-0.4533757389367709	0.5307294590711984	-2.746418469001719	-2.746418469001635	-0.4307682136260427	-0.009506078427921442	-0.7096830187523139	-0.277759830330491	-0.2140540884811916	-0.009154386410344498	-0.007144733772033871	-0.3069046943730431	0.1182892802155477	0.02773749033267392	0.2131012074025878	0.6059254973069295	-11.73930989011238	0.9972024938914092	-12.22027289218816	-605.3551378316386	-67.64854227079266	-5.185203108986922	1.246990797883591	1.032346216646121	-0.5808872455021415	-2.168691229925126	0.05614100645599895	-0.8314828226081128	2.315577293056749	-1.85117931710981	-1.851179317109821	-0.253680724883119	-0.3494244987978536	-1.110497184370175	0.122839926504616	-2.658322927922661e-07	4.861818519512787e-06	4.9574660326584e-06	9.87558833185857e-07	7.29230910446184e-08	3.49973440374639e-06	-4.376390257543854e-08
1.51	-0.3438423804789024	-0.04606810898475609	0.7140230209672291	1.355632382077312	-0.2569607421328131	-0.01997278833520886	-0.365788880917965	1.04069320293791	1.040693202937922	-0.01747196524496697	0.1741951246856881	0.2332166262557442	0.05294225574899562	0.3805733556874505	0.1255806075190508	0.7487192077846714	-2.574510389310301	-0.08155484623508757	-0.4630126441665353	0.5536909890304702	-2.76392475600296	-2.763924756002892	-0.4322518638931479	-0.01211716902827703	-0.7205035388435378	-0.2764280572557752	-0.2075088326831988	-0.009227914172412699	-0.007238948833816546	-0.3014610008709401	0.1191348829815796	0.02752188394854256	0.2073669200261997	1.254203776048059	-11.96414074047036	1.267163338973027	-12.2959994985069	-598.5643511149017	-67.20471098409628	-6.664999356139502	1.204360017568052	1.022711942389281	-0.6851230488466653	-1.972643972276322	0.06856065014782482	-1.024500321666763	2.278299913504738	-1.643466853162452	-1.643466853164765	-0.0894422163006893	-0.2225121811315829	-1.048582144445503	0.1508283561234554	-2.810990095459848e-07	5.078698025847406e-06	5.189869906792216e-06	1.03137976541216e-06	4.939019074276166e-08	3.426903541743872e-06	-3.494528742867807e-08
1.52	-0.3399771710201405	-0.04476130391488135	0.72147417935281	1.329792197541836	-0.2577721713053068	-0.02465021723619382	-0.3601385202001737	1.012975905235303	1.012975905235306	-0.0218008304528169	0.1740599344620369	0.225960703933067	0.05018666602277647	0.3923958820903795	0.135763791181724	0.7413366670588856	-2.593185512482317	-0.08067685201340641	-0.4724377873365509	0.5763268816354326	-2.77915558146545	-2.779155581465397	-0.4334849157073182	-0.01495069324771961	-0.730554167852642	-0.2745969898543255	-0.2009635768852211	-0.00930144193454426	-0.007333163895445711	-0.2960173073688417	0.1199804857475937	0.02730627756432652	0.2016326326498045	1.911307122975862	-12.20067648238253	1.55058869646067	-12.4653568171563	-591.6665706312638	-66.7650301358122	-8.33349974602379	1.159828468170758	1.014094214546919	-0.7917903451337566	-1.759537451626852	0.1122497742574897	-0.7891304106583187	2.250449822194825	-1.396087009359658	-1.396087009359661	-0.2035610342961224	-0.3939112226152734	-0.9565189679462115	0.222698791851445	-3.06886793767227e-07	4.832711217745784e-06	5.211694921203302e-06	1.021649291179806e-06	-7.345370028937355e-09	3.097068010810622e-06	-4.918361144549299e-08
1.53	-0.3359960507507763	-0.0433531626874277	0.7288462780831291	1.30377577640442	-0.2585729341207432	-0.02941961570904126	-0.3542636509115044	0.9851181756689219	0.9851181756689236	-0.02614099654745693	0.1738942507796449	0.2186086075589521	0.04745253439352309	0.4037368149741538	0.145840831874077	0.7329169207262556	-2.60974012030535	-0.07942773576354399	-0.4814060807626426	0.5985638670273384	-2.791997778819407	-2.791997778819386	-0.4345124755071376	-0.01819920194432509	-0.739721769038419	-0.2721493999708824	-0.1939569955878595	-0.009497436050146392	-0.007633239431918249	-0.2912756092651041	0.1214454487255558	0.02698395129499704	0.1955257642220957	2.745804289269418	-12.41567782799318	1.823452028662294	-12.70393610738608	-584.9714366437837	-66.33964883849177	-10.13384155367537	1.107517955193743	1.001149501469327	-0.8920202428129052	-1.54964934247671	0.1374511138652829	-0.9454504173466572	2.19785653702037	-1.169381418169967	-1.169381418174746	-0.04633198024575128	-0.2932694288125416	-0.8752089879793185	0.26661292488361	-3.438532121727129e-07	4.094928950555661e-06	5.009779897158991e-06	9.550204475851305e-07	-9.935875754984339e-08	2.49416501913847e-06	-8.791993332360648e-08
1.54	-0.33190426270123	-0.04184492295207246	0.7361291886570247	1.277604563809809	-0.2593599640609761	-0.03427765143790618	-0.3481689050410495	0.9571438050650497	0.9571438050650488	-0.03049023394558301	0.1736954922631584	0.2111691695141626	0.04474504343076267	0.414529438126444	0.1557834927620422	0.7234990357741981	-2.624143803921787	-0.07793027697309395	-0.4901652385392169	0.6203021979925172	-2.802483788963616	-2.802483788963627	-0.4352991764037931	-0.02156566006610523	-0.7480225019876305	-0.2692688565557245	-0.1869504142904986	-0.009693430165753896	-0.007933314968377824	-0.2865339111613686	0.1229104117035155	0.02666162502566016	0.1894188957943878	3.575639763682894	-12.62771666370569	2.093385960115596	-12.96124240095493	-578.3471364175772	-65.90994281518832	-11.94701541339372	1.050166521873948	0.9872182536693871	-0.9914180690192479	-1.329352610307533	0.1619182823750241	-0.7473032807548485	2.150718936849394	-0.9248495674100911	-0.9248495674100844	-0.1553892536633313	-0.4175011076502141	-0.7831453206330687	0.3092894981944521	-3.742042897654832e-07	3.654325031302878e-06	4.953254583360176e-06	9.187060763445827e-07	-1.661521683103496e-07	2.059003679916938e-06	-1.142254000112287e-07
1.55	-0.3277073538782648	-0.04023803873409709	0.7433130292479887	1.251300230263108	-0.2601305103510466	-0.03922201195427873	-0.3418594220913138	0.9290765884522022	0.9290765884522019	-0.03484597265946573	0.1734623428661684	0.2036512650824693	0.04206882423386534	0.4247549243172036	0.1655582471680037	0.7131131620920308	-2.63634712977291	-0.07612772673061043	-0.4986405718634579	0.6414938432161467	-2.81054669358367	-2.810546693583666	-0.4358193147003863	-0.025090024419883	-0.7554016105869732	-0.2658958664049053	-0.1799816760638781	-0.009882918247552535	-0.008418610132095744	-0.2817047013645183	0.123987911848472	0.02644901172729711	0.1832973077278041	4.268077836437869	-12.86798377778032	2.373122674508565	-13.05047291770508	-571.9303213785518	-65.55303363783928	-13.76506287468469	0.9941211554525315	0.9675217940963103	-1.085605037199177	-1.109477890884983	0.1960717091977579	-0.8879099231037161	2.088305004348042	-0.6850583328486869	-0.6850583328463338	0.004732593212964032	-0.3247675362755619	-0.6916114526325243	0.362009895893459	-3.969333442479508e-07	3.556122252064838e-06	5.064243500931163e-06	9.173192493381371e-07	-2.03887779759962e-07	1.817109896779803e-06	-1.262083596315466e-07
1.56	-0.3234111138958347	-0.03853442342005465	0.7503883244982542	1.224885132394222	-0.2608817014758867	-0.04424917811687015	-0.3353410391514962	0.9009411333084458	0.9009411333084445	-0.03920590101414617	0.1731929771382258	0.196064306000173	0.03942847616294971	0.4343956700189821	0.1751297119754535	0.7017899676344972	-2.646296668358852	-0.07405924392761389	-0.5067263677814987	0.6620821960089058	-2.816131495145546	-2.816131495145525	-0.4361371045621689	-0.02880892625502053	-0.7618334321082224	-0.2620946313593748	-0.1730129378372662	-0.01007240632936842	-0.008903905295816346	-0.2768754915676707	0.1250654119934234	0.02623639842891149	0.1771757196612146	4.954887498854244	-13.10259430330208	2.646616391463184	-13.14977130486947	-565.5970442940535	-65.1794022320543	-15.58260524557102	0.9332184240777249	0.9465603339670391	-1.178882224092497	-0.8785951572717716	0.2151047944776342	-0.6693957995148292	2.030060450675311	-0.4292289557740453	-0.429228955774044	-0.1149195667012038	-0.4564086039221736	-0.593687905014388	0.394938477136721	-4.185061955563197e-07	3.471211145132226e-06	5.163922031976088e-06	9.167578629008107e-07	-2.42058801160583e-07	1.582828154869891e-06	-1.362698870387113e-07
1.57	-0.3190215329750513	-0.03673619940523086	0.7573458288329064	1.198382008553693	-0.2616107037215838	-0.04935534081310457	-0.328619991237361	0.872762407651471	0.8727624076514702	-0.04356772231290967	0.1728856416294476	0.1884179493990997	0.03682846039542537	0.4434104803926816	0.1844705372840278	0.6895683434107338	-2.653933824264271	-0.07169157473455781	-0.5144391475948579	0.6820028065654131	-2.819186785942085	-2.819186785942086	-0.4361884188402803	-0.03267129589502273	-0.767269633061904	-0.2578357468081802	-0.1658716889327417	-0.01025720532628786	-0.009583258278246189	-0.2723729551795678	0.1263919497501463	0.02603570626543474	0.1709113101874419	5.700767828600505	-13.34617737148158	2.914067274115377	-13.25393938535341	-559.5663836301891	-64.86462553764844	-17.39323615405159	0.8690956951852677	0.9213440733629276	-1.265246517230985	-0.647161213299728	0.2539572198978448	-0.8124209828941432	1.954374320235099	-0.1796219275185182	-0.1796219275216628	0.05627598792810543	-0.3541198278997585	-0.4931851417532986	0.4511202085425309	-4.38633792897065e-07	3.402914628581398e-06	5.249462579863437e-06	9.172282771748837e-07	-2.807740849999648e-07	1.358061464494006e-06	-1.439296241794345e-07
